<svg xmlns="http://www.w3.org/2000/svg" width="107.167" height="25.086" viewBox="0 0 107.167 25.086">
  <g id="Group_2395" data-name="Group 2395" transform="translate(-115.685 -112.008)">
    <line id="Line_3" data-name="Line 3" x1="107.167" transform="translate(115.685 126.411)" fill="none" stroke="#00c288" stroke-miterlimit="10" stroke-width="1.5" stroke-dasharray="5"/>
    <path id="Path_3525" data-name="Path 3525" d="M-1566.294,144.5l2.62-9.316,3.275-4.922,4.366-2.285,2.839-3.34,3.056,3.164,5.458.176,3.93-3.34,2.183,4.922,3.93,2.461,1.965,3.34,4.148-3.867v-1.933l3.712-4.922,2.62-2.461,1.092,4.395,1.092,2.285,6.331,5.625a23.782,23.782,0,0,1,7.2,4.043l5.895,2.637,3.057,3.34,3.494-3.34,2.62,3.34,2.62-4.57,1.309-5.449,3.494-3.164,4.8,3.692,4.148.527" transform="translate(1686.903 -8.745)" fill="none" stroke="#00c288" stroke-miterlimit="10" stroke-width="1.5"/>
  </g>
</svg>
