<svg xmlns="http://www.w3.org/2000/svg" width="12.633" height="12.623" viewBox="0 0 12.633 12.623">
  <g id="Group_2521" data-name="Group 2521" transform="translate(5109.92 -2377.894)">
    <path id="Path_4899" data-name="Path 4899" d="M-5104.1,2377.894c3.982-.014,6.8,2.827,6.811,6.294a6.325,6.325,0,0,1-6.483,6.327,6.307,6.307,0,0,1-6.145-6.589,6.075,6.075,0,0,1,1.946-4.286A5.993,5.993,0,0,1-5104.1,2377.894Zm-1.364,5.811c.248-.024.493-.055.739-.068a.328.328,0,0,1,.348.228,1.158,1.158,0,0,1,.028.45c-.111.494-.245.984-.378,1.473a4.253,4.253,0,0,0-.238,1.314.879.879,0,0,0,.38.7,1.5,1.5,0,0,0,1.235.2,8.08,8.08,0,0,0,.975-.331c.023-.008.058-.018.063-.034.034-.121.062-.243.084-.338a6.384,6.384,0,0,1-.706.064c-.287,0-.433-.093-.426-.429a3.712,3.712,0,0,1,.1-.709,19.544,19.544,0,0,0,.512-2.063.963.963,0,0,0-.4-.99,1.405,1.405,0,0,0-1.163-.172c-.32.08-.627.208-.944.3a.2.2,0,0,0-.164.167C-5105.436,2383.556-5105.451,2383.641-5105.462,2383.7Zm1.476-2.481a.814.814,0,0,0,.459.765.96.96,0,0,0,1.133-.125.831.831,0,0,0,.012-1.262,1.006,1.006,0,0,0-.778-.25C-5103.532,2380.368-5104.04,2380.8-5103.986,2381.223Z" fill="#91a3ab"/>
    <path id="Path_4900" data-name="Path 4900" d="M-4986.685,2518.371c.012-.063.027-.148.043-.234a.2.2,0,0,1,.164-.168c.316-.092.624-.22.943-.3a1.4,1.4,0,0,1,1.163.172.965.965,0,0,1,.4.99,19.437,19.437,0,0,1-.513,2.063,3.791,3.791,0,0,0-.1.709c-.008.336.138.424.426.428a6.352,6.352,0,0,0,.707-.064c-.023.094-.052.217-.085.338,0,.016-.04.026-.063.034a8.087,8.087,0,0,1-.975.331,1.494,1.494,0,0,1-1.235-.2.879.879,0,0,1-.38-.7,4.239,4.239,0,0,1,.238-1.314c.132-.489.266-.979.377-1.473a1.167,1.167,0,0,0-.027-.45.329.329,0,0,0-.348-.228C-4986.191,2518.315-4986.436,2518.347-4986.685,2518.371Z" transform="translate(-118.777 -134.667)" fill="#fff"/>
    <path id="Path_4901" data-name="Path 4901" d="M-4946,2446.612c-.054-.428.454-.854.827-.873a1.01,1.01,0,0,1,.779.25.832.832,0,0,1-.013,1.262.959.959,0,0,1-1.133.125A.811.811,0,0,1-4946,2446.612Z" transform="translate(-157.988 -65.389)" fill="#fff"/>
  </g>
</svg>
