<svg xmlns="http://www.w3.org/2000/svg" width="25.178" height="21.389" viewBox="0 0 25.178 21.389">
  <g id="Group_2486" data-name="Group 2486" transform="translate(-158.75 -1904.611)">
    <path id="Path_3621" data-name="Path 3621" d="M-374.744-773.024a.71.71,0,0,0-.043.087.941.941,0,0,1-.861.7.954.954,0,0,1-.976-.565,14.307,14.307,0,0,0-3.294-4.094,11.975,11.975,0,0,0-5.268-2.774,9.8,9.8,0,0,0-6.4.709,13.719,13.719,0,0,0-6.426,6.1,1.017,1.017,0,0,1-1.136.614.982.982,0,0,1-.651-1.444,15.188,15.188,0,0,1,2.331-3.333,14.851,14.851,0,0,1,6.256-4.2,11.865,11.865,0,0,1,10,1,16.244,16.244,0,0,1,6.249,6.345c.084.149.149.308.223.462Z" transform="translate(558.672 2694.379)" fill="#03265e"/>
    <path id="Path_3622" data-name="Path 3622" d="M-277.029-713.673a4.829,4.829,0,0,1-4.831-4.827,4.823,4.823,0,0,1,4.836-4.843,4.822,4.822,0,0,1,4.819,4.836A4.829,4.829,0,0,1-277.029-713.673Z" transform="translate(448.368 2639.673)" fill="#00eec4"/>
    <path id="Path_3623" data-name="Path 3623" d="M-396.081-819.446a2.474,2.474,0,0,1-.6-.286c-.761-.659-1.508-1.334-2.246-2.018a.956.956,0,0,1-.058-1.351.95.95,0,0,1,1.345-.118q1.158,1.006,2.279,2.055a.9.9,0,0,1,.21,1.062A1.1,1.1,0,0,1-396.081-819.446Z" transform="translate(558.034 2733.197)" fill="#03265e"/>
    <path id="Path_3624" data-name="Path 3624" d="M-79.923-819.514a1.016,1.016,0,0,1-1.007-.584.916.916,0,0,1,.182-1.068c.761-.707,1.529-1.409,2.316-2.087a.944.944,0,0,1,1.326.13.947.947,0,0,1-.023,1.315c-.756.713-1.533,1.4-2.318,2.085A1.487,1.487,0,0,1-79.923-819.514Z" transform="translate(260.73 2733.218)" fill="#03265e"/>
    <path id="Path_3625" data-name="Path 3625" d="M-221.418-899.206c0,.475,0,.95,0,1.425a.988.988,0,0,1-.991,1.027.984.984,0,0,1-.974-1.019q-.006-1.437,0-2.874a.977.977,0,0,1,.991-1.024.98.98,0,0,1,.976,1.015c0,.483,0,.966,0,1.449Z" transform="translate(393.737 2806.282)" fill="#03265e"/>
  </g>
</svg>
